<svg width="1440" height="277" viewBox="0 0 1440 277" fill="none" xmlns="http://www.w3.org/2000/svg">
<g clip-path="url(#clip0_89_55)">
<g filter="url(#filter0_f_89_55)">
<path d="M-50.9126 166.858C-49.8237 166.313 -46.9925 165.551 -44.3791 166.858C-41.7656 168.165 -38.9344 167.402 -37.8455 166.858C-36.9381 166.313 -35.1232 165.006 -35.1232 164.135C-35.1232 163.264 -33.3083 163.046 -32.4009 163.046L-31.312 164.135C-30.949 164.861 -29.7875 165.877 -28.0452 164.135C-27.8637 163.772 -27.283 163.046 -26.4118 163.046C-25.3229 163.046 -25.3229 160.868 -25.3229 159.779C-25.3229 158.69 -27.5008 155.968 -25.3229 155.968C-23.1451 155.968 -22.6006 157.601 -18.2449 155.968C-14.7604 154.661 -12.4373 152.52 -11.7114 151.612C-10.441 150.161 -7.35569 148.128 -5.17785 151.612C-4.63338 152.702 -3 154.88 -0.822155 154.88C0.0852776 154.517 2.11794 153.574 2.98907 152.702C3.86021 151.83 6.25584 152.339 7.34476 152.702C5.52989 154.516 2.33572 159.125 4.078 163.046C4.078 164.498 5.16692 167.076 9.52261 165.769C14.9672 164.135 16.6006 164.679 19.3229 163.046C21.5008 161.74 20.9563 164.317 20.4118 165.769C19.1414 166.132 17.1451 167.185 19.3229 168.491C19.5044 169.036 20.4118 170.234 22.5897 170.669C24.7675 171.105 25.675 170.125 25.8564 169.58C26.7639 169.217 28.6876 168.491 29.1232 168.491C29.6677 168.491 31.8455 166.859 28.0343 161.413C28.5787 160.324 30.6477 158.472 34.5678 159.779C35.4753 160.687 37.2901 162.828 37.2901 164.135C41.2828 162.139 49.8127 158.038 51.9906 157.602C54.1684 157.167 57.6167 157.421 59.0686 157.602C58.1611 156.332 57.1085 153.791 60.1575 153.791C63.0613 154.698 70.72 154.771 78.1247 147.802V151.612C78.4877 151.976 79.5403 152.702 80.847 152.702C82.4804 152.702 83.5693 153.245 83.5693 155.968C84.1138 155.243 85.7472 153.574 87.925 152.702C90.6473 151.612 89.0139 153.789 93.3696 151.612C94.8215 151.794 97.5075 152.702 96.6364 154.88C96.2734 155.968 95.3297 157.71 94.4586 155.968C93.7326 155.06 92.2807 153.79 92.2807 155.968C92.6437 156.513 93.5874 157.821 94.4586 158.691L95.5475 160.869L96.6364 157.058C96.9994 156.695 99.1409 156.078 104.803 156.513C109.34 156.513 119.177 155.642 122.226 152.158C123.315 150.524 126.255 147.802 129.304 149.98C127.852 151.613 124.731 154.88 123.859 154.88C122.771 155.787 120.702 157.82 121.137 158.691C125.493 158.51 134.64 158.256 136.382 158.691C138.124 159.127 139.286 157.784 139.649 157.058C139.83 156.513 140.629 155.751 142.371 157.058L144.005 157.602C143.097 156.695 141.827 154.662 144.005 153.791C146.364 152.521 151.3 149.98 152.171 149.98C153.26 149.98 153.26 148.891 157.616 149.98C156.89 150.524 155.547 151.831 155.983 152.702C156.418 153.573 156.89 154.88 157.072 155.424C156.709 155.424 155.656 155.315 154.349 154.88C153.26 154.698 151.083 154.444 151.083 154.88C151.083 155.424 153.805 157.602 156.527 157.602C157.616 157.421 159.794 156.622 159.794 154.88C159.794 153.138 159.431 150.887 159.249 149.98C160.338 148.528 163.278 145.624 166.327 145.624C169.376 145.624 172.317 144.535 173.405 143.991C174.676 143.446 177.979 143.011 181.028 145.624C181.572 146.168 182.77 146.821 183.206 145.079C183.932 144.172 186.037 142.901 188.65 145.079L187.561 147.802C186.654 147.257 184.948 146.495 185.384 147.802C185.565 148.164 186.146 148.89 187.017 148.89C188.469 149.616 191.59 150.742 192.462 149.435C193.188 148.709 194.639 146.931 194.639 145.624C196.636 146.168 200.846 147.257 201.717 147.257C202.589 147.257 204.621 148.346 205.529 148.89C206.799 147.802 209.775 145.733 211.518 146.168C211.881 146.168 212.498 146.713 212.062 148.89C211.881 149.253 211.627 150.088 212.062 150.524C212.498 150.959 213.696 149.979 214.24 149.435C215.147 149.435 216.636 149.87 215.329 151.613C214.784 151.976 213.26 152.484 211.518 151.613C210.792 151.794 209.449 152.484 209.884 153.791C210.066 154.154 210.755 154.88 212.062 154.88L220.229 155.424C220.411 155.243 220.882 154.88 221.318 154.88H221.319C221.865 154.88 224.585 154.88 225.674 155.968C227.126 156.332 230.792 156.731 233.841 155.424C234.93 155.243 237.107 155.315 237.107 157.057C236.926 157.42 236.127 158.146 234.385 158.146C234.204 158.691 234.167 159.997 235.474 160.869C236.381 161.958 238.196 163.7 238.196 161.958C238.559 161.413 239.612 160.433 240.919 160.869C241.826 161.958 244.185 163.809 246.363 162.502C246.908 161.958 247.888 161.631 247.452 164.68C247.452 165.769 247.779 168.164 249.086 169.035C249.811 168.854 251.046 167.947 250.174 165.769C249.63 165.043 249.086 163.155 251.263 161.413C252.171 160.506 254.639 159.126 257.252 160.869L260.519 163.046C260.701 161.958 261.935 159.671 265.419 159.235C266.145 159.417 268.142 159.562 270.32 158.691C272.497 157.82 271.227 161.595 270.32 163.591C269.957 164.317 268.033 165.769 263.242 165.769C264.512 166.132 267.162 167.075 267.597 167.947C269.594 168.128 273.804 166.749 274.675 159.78C274.494 162.683 275.437 167.293 280.664 162.502C283.387 160.143 289.158 155.097 290.465 153.791C291.009 152.883 292.534 150.85 294.276 149.979C293.55 151.613 292.642 155.968 294.82 160.324C295.183 161.05 296.671 161.74 299.72 158.691C300.083 157.965 301.354 156.513 303.532 156.513C304.258 156.331 305.818 155.533 306.254 153.791C307.161 153.246 308.432 151.939 306.254 151.068C305.165 150.161 303.967 148.346 307.887 148.346C309.521 148.709 312.57 150.306 311.699 153.791C311.154 154.335 309.956 155.315 309.521 154.88C309.085 154.444 308.25 156.513 307.887 157.602C308.613 157.965 310.283 158.364 311.154 157.057C312.025 155.751 312.606 154.335 312.787 153.791C313.332 152.883 315.401 152.157 319.321 156.513C319.684 156.876 320.846 157.384 322.588 156.513C323.495 155.605 325.419 154.662 325.855 158.146C325.855 158.872 326.943 160.106 331.299 159.235C335.836 156.694 348.069 152.157 360.7 154.335C361.607 154.517 362.878 155.315 360.7 157.057C359.974 158.328 360.047 160.433 366.145 158.691C369.956 157.783 378.232 155.751 380.845 154.88C383.459 154.008 391.734 154.517 395.546 154.88L407.524 155.968C408.976 156.15 411.226 156.948 408.613 158.691L400.446 160.869C404.438 160.324 412.859 160.433 414.602 165.224L415.146 167.402C415.691 169.035 416.78 171.322 416.78 167.402V165.769C417.687 166.858 420.7 168.709 425.491 167.402C427.306 166.313 432.896 164.026 440.736 163.591C442.732 163.409 447.052 163.591 448.358 165.769C449.81 165.587 453.041 164.571 454.347 161.958C454.71 160.869 456.743 158.691 461.97 158.691C465.6 158.509 473.186 157.928 474.492 157.057C476.852 155.787 482.115 153.355 484.293 153.791C486.471 154.226 486.652 153.972 486.471 153.791C486.587 153.752 486.706 153.707 486.818 153.658C486.357 153.042 485.969 152.553 485.651 152.264C485.408 152.226 485.138 152.191 484.837 152.157C485.022 151.867 485.292 151.937 485.651 152.264C488.235 152.665 487.677 153.288 486.818 153.658C489.419 157.129 494.359 164.627 502.26 163.046C507.705 162.139 520.663 159.235 528.939 154.88C530.753 153.972 535.472 152.375 539.828 153.246C541.098 153.427 543.966 153.245 545.272 151.067C545.635 150.523 546.688 149.434 547.995 149.434C549.301 149.434 550.354 148.708 550.717 148.345C550.173 150.341 549.301 154.661 550.173 155.968C550.717 157.238 551.915 159.997 552.35 160.868C553.439 161.775 555.182 162.61 553.439 158.69C554.347 158.145 556.597 157.057 558.339 157.057L563.784 154.88C563.421 155.787 562.913 157.819 563.784 158.69C564.873 159.779 568.14 160.868 569.773 159.779C570.318 159.779 571.951 159.234 572.495 158.69C573.04 158.145 572.495 157.056 576.851 155.968C577.759 155.605 579.573 154.554 579.573 153.246C580.844 153.427 582.731 154.77 580.118 158.69C579.755 159.053 578.593 159.561 576.851 158.69C575.762 158.871 574.129 159.67 576.307 161.412L580.118 162.501C579.936 163.409 578.702 164.897 575.218 163.59C574.492 163.59 573.476 163.917 575.218 165.223C575.944 165.949 577.178 167.837 576.307 169.579C576.851 170.85 578.267 172.737 579.573 170.124C579.573 168.672 580.009 166.095 581.751 167.401C582.84 167.764 585.345 168.272 586.651 167.401C587.377 167.22 589.047 166.966 589.918 167.401C590.644 167.401 592.205 167.183 592.641 166.312C595.363 166.131 601.025 165.006 601.896 161.957C601.715 160.323 602.55 157.71 607.341 160.323C608.248 161.049 610.826 161.848 613.875 159.234C615.145 158.327 617.25 155.86 615.508 153.246C615.145 152.52 614.963 151.067 617.141 151.067C619.138 150.523 623.348 149.325 624.219 148.89C625.308 148.345 627.486 147.801 627.486 149.979C627.486 150.704 628.248 151.939 631.297 151.067C632.023 151.249 633.911 151.067 635.653 148.89C636.197 148.163 638.049 147.364 641.098 149.979C642.187 150.886 643.711 153.027 641.098 154.334C639.101 155.242 635 158.146 634.564 162.501L634.02 166.312L635.109 166.857C636.56 166.131 639.791 164.57 641.098 164.134C641.642 163.953 642.949 163.263 643.82 161.957C645.09 162.864 648.176 163.808 650.353 160.323C651.079 160.868 652.313 162.283 651.442 163.59L647.631 166.312C648.72 166.131 651.007 165.985 651.442 166.857L651.443 166.857C651.987 167.946 652.531 169.035 653.62 167.401C653.983 166.312 655.036 164.57 656.342 166.312L657.976 168.49C658.883 167.764 661.352 166.203 663.965 165.768C666.687 165.405 672.676 164.679 674.854 164.679C677.032 164.679 680.48 165.405 681.932 165.768C682.658 165.586 684.328 164.897 685.199 163.59C686.07 162.283 690.644 162.682 692.821 163.045C695.907 164.134 702.622 165.985 704.8 164.679C705.888 164.134 707.849 162.61 706.977 160.868C706.796 160.142 707.195 158.363 710.244 157.056C710.789 156.875 711.878 155.967 711.878 153.79C711.878 151.612 714.781 153.971 716.233 155.423C716.778 156.149 718.847 156.839 722.767 153.79L723.856 159.234C723.856 159.96 724.4 160.976 726.578 159.234C727.122 158.69 728.865 157.819 731.478 158.69L735.289 157.056C736.015 156.33 737.903 155.205 739.645 156.512C740.371 157.238 742.367 158.036 744.545 155.423C745.271 154.697 746.941 154.007 747.812 157.056C747.086 157.782 745.743 159.452 746.179 160.323C746.36 161.231 746.941 163.154 747.812 163.59C748.356 164.316 749.119 166.203 747.812 167.946C746.723 169.397 744.872 172.519 746.179 173.39C746.905 174.661 749.01 176.33 751.623 172.846C751.986 172.301 752.93 171.212 753.801 171.212C753.257 169.76 752.93 167.074 755.979 167.946C756.523 168.671 758.266 169.688 760.879 167.946C764.146 165.768 761.424 164.134 764.146 161.956C764.509 161.231 766.215 159.888 770.135 160.323C771.042 160.686 773.402 160.65 775.579 157.601L785.38 152.701C786.106 152.156 787.884 151.394 789.191 152.701C788.465 153.064 787.34 154.116 788.647 155.423C789.735 156.693 791.913 157.927 791.913 152.701C792.458 151.249 795.398 148.345 802.803 148.345C804.617 148.345 808.683 148.454 810.425 148.889C811.877 149.434 814.563 149.761 813.692 146.712C813.329 145.623 813.256 143.554 815.87 143.989C817.322 143.989 820.661 143.881 822.403 143.445C824.037 143.264 827.739 143.445 829.481 145.623C830.389 146.167 832.966 147.256 836.015 147.256C836.741 147.438 838.301 147.909 838.737 148.345C839.281 148.889 840.915 152.701 837.648 152.156C836.015 151.975 833.183 152.374 834.926 155.423C836.196 156.149 839.717 157.383 843.637 156.512H855.615L857.793 155.423C857.793 156.149 858.011 157.819 858.882 158.69C859.971 159.779 866.505 160.868 867.049 160.868C867.593 160.868 870.316 161.957 874.127 160.868C877.938 159.779 879.572 158.69 881.205 159.779C882.838 160.868 883.927 159.234 883.927 158.145C883.927 157.057 886.105 157.601 886.105 158.145C886.105 158.69 883.927 159.779 885.016 162.501C885.887 164.679 888.646 165.586 889.916 165.768C890.279 164.86 890.57 162.719 888.827 161.412C887.557 160.868 885.778 159.452 888.827 158.145C891.55 157.238 898.192 157.165 902.983 164.135C903.528 163.953 904.617 163.481 904.617 163.046C904.617 162.501 906.795 161.957 907.884 163.046C908.428 163.227 909.735 163.046 910.606 160.868C911.332 160.142 913.764 158.69 917.684 158.69C918.047 158.69 919.208 158.581 920.951 158.145C922.403 157.782 925.851 157.928 928.029 161.412C929.299 161.594 931.84 161.303 931.84 158.69C931.477 156.875 931.513 153.245 934.562 153.245C935.47 153.245 937.176 153.899 936.74 156.512C936.014 157.238 934.889 159.234 936.196 161.412C936.559 162.32 938.047 163.59 941.096 161.412C941.822 160.868 943.6 160.106 944.907 161.412C945.996 161.049 948.5 160.432 949.807 160.868C950.896 160.868 952.965 159.997 952.529 156.512C952.892 155.06 954.816 153.354 959.607 158.145C964.399 162.937 968.863 158.327 970.497 155.423C971.404 154.153 974.852 151.721 981.386 152.156C983.201 152.701 986.83 154.661 986.83 158.145C987.738 157.782 989.553 156.294 989.553 153.245C989.553 151.431 990.206 148.563 992.819 151.612C992.457 150.886 992.711 149.216 996.631 148.345C1000.08 147.619 1008.28 146.058 1013.51 145.623C1015.32 145.623 1019.39 145.732 1021.13 146.167C1022.95 146.53 1026.58 146.821 1026.58 145.078C1028.21 144.897 1031.91 146.058 1033.65 152.156C1033.84 152.701 1034.53 153.354 1035.83 151.612C1036.92 151.067 1039.32 150.632 1040.19 153.245C1041.82 152.338 1044.87 151.394 1044 154.879C1043.82 156.875 1042.58 161.086 1039.1 161.957C1038.19 162.32 1037.47 163.263 1041.82 164.135C1042.55 164.497 1044 165.768 1044 167.946C1043.82 169.398 1044.65 171.866 1049.44 170.124C1052.17 169.761 1058.15 169.252 1060.33 170.124C1061.97 170.85 1065.56 171.648 1066.87 169.035C1068.32 168.127 1071.66 166.857 1073.4 169.035C1073.94 169.035 1074.49 169.579 1076.12 167.946C1077.43 166.639 1078.48 167.401 1078.84 167.946C1079.75 168.672 1082.33 169.688 1085.38 167.946C1085.74 166.857 1087.34 164.788 1090.82 165.223C1092.64 165.223 1096.81 165.006 1098.99 164.135C1101.17 163.772 1105.74 163.263 1106.61 164.135L1107.16 164.679C1108.43 164.86 1111.19 164.679 1112.06 162.501C1112.6 161.594 1114.34 159.561 1116.96 158.69C1116.41 161.049 1115 165.877 1113.69 166.312H1120.22C1120.4 166.131 1121.2 165.441 1122.95 164.135C1124.69 162.828 1126.94 165.042 1127.85 166.312C1128.03 165.586 1128.28 163.699 1127.85 161.957C1128.21 161.231 1129.81 159.888 1133.29 160.323C1134.38 160.868 1137.54 161.412 1141.46 159.234C1143.27 157.964 1147.56 156.076 1150.17 158.69C1150.89 159.96 1152.67 161.63 1153.98 158.145C1154.89 157.42 1157.03 156.403 1158.34 158.145C1159.97 160.323 1162.15 154.879 1162.69 155.423C1163.24 155.968 1164.87 155.423 1164.87 157.057C1163.05 157.964 1160.08 160.323 1162.69 162.501C1163.42 163.772 1165.41 165.877 1167.59 164.135C1168.68 163.409 1172.17 162.937 1177.39 166.857C1179.39 166.494 1183.82 165.115 1185.56 162.501C1187.3 159.888 1190.64 157.782 1192.09 157.057C1194.27 157.964 1199.17 159.234 1201.35 157.057C1203.53 154.879 1206.61 153.245 1207.88 152.701C1209.15 152.156 1211.91 150.959 1212.78 150.523C1213.65 150.087 1214.23 152.156 1214.42 153.245C1215.5 154.334 1217.79 156.839 1218.23 158.145C1218.66 159.452 1221.31 158.69 1222.58 158.145L1224.76 157.057C1224.58 159.053 1225.09 163.046 1228.57 163.046C1229.3 162.864 1230.86 162.828 1231.29 164.135C1232.56 163.046 1235.65 161.303 1237.83 163.046C1238.73 163.409 1240.11 165.006 1238.37 168.49L1244.91 165.223C1245.99 164.316 1248.28 162.501 1248.72 162.501C1249.26 162.501 1250.35 161.412 1249.81 158.145C1249.62 156.331 1250.46 152.701 1255.25 152.701C1255.98 151.793 1257.65 150.305 1258.52 151.612C1258.34 152.882 1258.19 155.314 1259.06 154.879C1260.15 154.334 1265.05 150.523 1264.51 146.712V143.445L1267.23 146.712L1269.95 148.345C1270.86 149.071 1272.13 150.741 1269.95 151.612C1267.77 152.483 1267.23 154.516 1267.23 155.423C1267.77 157.238 1269.08 160.759 1269.95 160.323C1271.04 159.779 1275.94 159.234 1277.03 157.057C1278.12 155.242 1280.4 152.701 1280.84 157.057C1280.84 157.964 1281.17 159.888 1282.47 160.323L1286.28 161.412C1286.1 161.775 1285.3 162.61 1283.56 163.046C1283.56 163.772 1284 165.115 1285.74 164.679C1286.83 164.679 1289.12 164.026 1289.55 161.412C1290.28 160.505 1292.06 159.234 1293.36 161.412C1292.27 161.957 1290.75 163.263 1293.36 164.135L1297.72 162.501C1298.63 161.775 1300 159.779 1298.26 157.601C1298.81 156.331 1300.33 154.008 1302.07 154.879C1304.25 155.968 1304.8 157.057 1306.97 155.968C1309.15 154.879 1311.33 152.701 1312.96 153.245C1314.6 153.79 1316.23 155.968 1315.68 155.968C1315.14 155.968 1310.24 156.512 1312.42 158.145C1315.47 158.581 1314.05 161.594 1312.96 163.046C1312.78 163.953 1313.07 165.659 1315.68 165.223C1318.3 164.788 1318.59 165.405 1318.41 165.768C1315.68 167.22 1311.87 169.797 1318.41 168.49C1319.86 167.764 1322.87 165.659 1323.31 163.046L1326.57 154.879C1326.76 153.427 1328.53 151.067 1334.2 153.245H1341.27C1342.18 153.064 1344.32 153.028 1345.63 154.334C1345.81 154.153 1346.28 153.572 1346.72 152.701C1347.26 151.612 1349.99 148.89 1354.34 151.067C1355.61 151.793 1358.48 153.245 1359.79 153.245C1361.09 153.245 1363.23 154.334 1364.14 154.879C1365.23 154.516 1367.84 153.354 1369.59 151.612C1371.4 149.979 1375.36 146.712 1376.66 146.712C1377.97 146.712 1374.67 150.704 1372.85 152.701C1372.13 153.245 1370.89 154.334 1371.76 154.334C1372.85 154.334 1377.75 154.334 1379.39 149.979C1379.39 151.793 1379.82 155.205 1381.56 154.334L1393.54 151.067C1395.72 150.704 1400.19 149.979 1400.62 149.979C1401.17 149.979 1396.81 152.701 1396.81 154.334C1397.35 154.697 1398.66 155.205 1399.53 154.334C1400.62 153.245 1402.8 154.879 1401.71 156.512C1400.62 158.145 1400.62 160.323 1402.25 160.323C1403.89 160.323 1405.52 158.69 1403.89 158.145C1402.25 157.601 1405.52 155.968 1406.61 157.601C1407.48 158.908 1410.6 158.871 1412.05 158.69C1413.51 158.871 1416.41 159.997 1416.41 163.046C1417.32 162.138 1419.79 160.323 1422.4 160.323C1420.22 163.409 1416.52 170.124 1419.13 172.301C1419.86 171.938 1421.31 170.668 1421.31 168.49C1421.31 168.672 1421.53 169.252 1422.4 170.124C1423.27 170.995 1426.39 170.487 1427.84 170.124C1427.66 168.853 1428.17 165.986 1431.66 164.679C1436.01 163.046 1439.82 161.957 1441.46 160.323C1442.76 159.017 1442.73 157.238 1442.54 156.512C1442.91 157.238 1444.29 158.472 1446.9 157.601C1447.81 156.875 1450.17 155.532 1452.34 155.968C1454.52 156.403 1457.97 152.882 1459.42 151.067C1461.6 149.797 1466.28 148.018 1467.59 151.067C1468.9 154.116 1468.13 155.968 1467.59 156.512C1469.22 157.057 1472.6 158.363 1473.03 159.234C1474.12 159.416 1476.41 160.106 1476.85 161.412C1477.28 162.719 1478.12 163.046 1478.48 163.046C1479.2 162.138 1480.44 160.106 1479.57 159.234C1478.48 158.145 1483.38 155.423 1486.1 156.512C1488.28 157.383 1489.55 158.327 1489.91 158.69C1489.91 156.875 1490.78 153.572 1494.27 154.879V458.436L-50.9126 448.636V166.858Z" fill="#F2F1EC"/>
<path d="M40.5569 146.167C37.9435 144.86 36.2012 148.163 35.6567 149.979C35.9862 149.253 36.9919 148.564 38.379 151.612C40.1129 155.423 42.1903 153.791 44.3681 154.88C46.546 155.969 50.9017 151.612 49.8127 151.612C48.9416 151.612 47.9979 149.797 47.6349 148.89C46.3282 146.711 49.9942 146.167 51.9906 146.167C53.0795 145.804 55.0396 144.861 54.1684 143.989L51.9906 141.812C50.6839 140.94 47.4534 142.538 46.0015 143.445C44.2592 143.881 44.1866 145.441 44.3681 146.167C46.1104 149.652 43.6422 150.886 42.1903 151.067C42.7347 149.979 43.1703 147.475 40.5569 146.167Z" fill="#F2F1EC"/>
</g>
</g>
<defs>
<filter id="filter0_f_89_55" x="-122.781" y="69.6909" width="1688.92" height="460.614" filterUnits="userSpaceOnUse" color-interpolation-filters="sRGB">
<feFlood flood-opacity="0" result="BackgroundImageFix"/>
<feBlend mode="normal" in="SourceGraphic" in2="BackgroundImageFix" result="shape"/>
<feGaussianBlur stdDeviation="35.9344" result="effect1_foregroundBlur_89_55"/>
</filter>
<clipPath id="clip0_89_55">
<rect width="1445" height="276.586" fill="white" transform="translate(-3)"/>
</clipPath>
</defs>
</svg>
